<?xml version="1.0" encoding="utf-8"?>
<!-- Generator: Adobe Illustrator 27.5.0, SVG Export Plug-In . SVG Version: 6.00 Build 0)  -->
<svg version="1.1" xmlns="http://www.w3.org/2000/svg" xmlns:xlink="http://www.w3.org/1999/xlink" x="0px" y="0px"
	 viewBox="0 0 500 500" style="enable-background:new 0 0 500 500;" xml:space="preserve">
<g id="BACKGROUND">
	<rect style="fill:#FF7043;" width="500" height="500"/>
	<path style="fill:#FFFFFF;" d="M366.062,174.602h-2.37v-2.37c0-0.768-0.623-1.391-1.391-1.391s-1.391,0.623-1.391,1.391v2.37h-2.37
		c-0.768,0-1.391,0.623-1.391,1.391c0,0.768,0.623,1.391,1.391,1.391h2.37v2.37c0,0.768,0.623,1.391,1.391,1.391
		s1.391-0.623,1.391-1.391v-2.37h2.37c0.768,0,1.391-0.623,1.391-1.391C367.453,175.225,366.83,174.602,366.062,174.602z"/>
	<path style="fill:#FFFFFF;" d="M154.43,357.186h-2.37v-2.37c0-0.768-0.623-1.391-1.391-1.391c-0.768,0-1.391,0.623-1.391,1.391
		v2.37h-2.37c-0.768,0-1.391,0.623-1.391,1.391c0,0.768,0.623,1.391,1.391,1.391h2.37v2.37c0,0.768,0.623,1.391,1.391,1.391
		c0.768,0,1.391-0.623,1.391-1.391v-2.37h2.37c0.768,0,1.391-0.623,1.391-1.391C155.822,357.809,155.199,357.186,154.43,357.186z"/>
	<g>
		<circle style="fill:#FFFFFF;" cx="127.177" cy="197.479" r="2.995"/>
		<path style="fill:#FFFFFF;" d="M140.903,204.405c1.17-1.17,1.17-3.066,0-4.235c-1.169-1.169-3.066-1.169-4.235,0
			c-1.17,1.17-1.17,3.066,0,4.235C137.837,205.574,139.733,205.574,140.903,204.405z"/>
		<circle style="fill:#FFFFFF;" cx="143.594" cy="213.896" r="2.995"/>
		<path style="fill:#FFFFFF;" d="M136.668,223.387c-1.17,1.169-1.17,3.066,0,4.235c1.17,1.17,3.066,1.17,4.235,0
			c1.17-1.17,1.17-3.066,0-4.235C139.733,222.217,137.837,222.217,136.668,223.387z"/>
		<circle style="fill:#FFFFFF;" cx="127.177" cy="230.313" r="2.995"/>
		<path style="fill:#FFFFFF;" d="M113.451,223.387c-1.17,1.169-1.17,3.066,0,4.235c1.169,1.17,3.066,1.17,4.235,0
			c1.17-1.17,1.17-3.066,0-4.235C116.516,222.217,114.62,222.217,113.451,223.387z"/>
		<circle style="fill:#FFFFFF;" cx="110.76" cy="213.896" r="2.995"/>
		<circle style="fill:#FFFFFF;" cx="115.568" cy="202.287" r="2.995"/>
	</g>
	<g>
		<path style="fill:#FFFFFF;" d="M376.561,311.375c-1.654,0-2.995,1.341-2.995,2.995s1.341,2.995,2.995,2.995
			c1.654,0,2.995-1.341,2.995-2.995S378.215,311.375,376.561,311.375z"/>
		<path style="fill:#FFFFFF;" d="M390.287,321.296c1.169-1.17,1.169-3.066,0-4.235c-1.17-1.17-3.066-1.17-4.235,0
			c-1.169,1.169-1.169,3.066,0,4.235C387.221,322.466,389.117,322.466,390.287,321.296z"/>
		<path style="fill:#FFFFFF;" d="M392.978,327.792c-1.654,0-2.995,1.341-2.995,2.995c0,1.654,1.341,2.995,2.995,2.995
			c1.654,0,2.995-1.341,2.995-2.995C395.972,329.133,394.632,327.792,392.978,327.792z"/>
		<path style="fill:#FFFFFF;" d="M386.051,340.278c-1.169,1.169-1.169,3.066,0,4.235c1.17,1.169,3.066,1.169,4.235,0
			c1.169-1.17,1.169-3.066,0-4.235C389.117,339.108,387.221,339.108,386.051,340.278z"/>
		<path style="fill:#FFFFFF;" d="M376.561,344.209c-1.654,0-2.995,1.341-2.995,2.995c0,1.654,1.341,2.995,2.995,2.995
			c1.654,0,2.995-1.341,2.995-2.995C379.555,345.55,378.215,344.209,376.561,344.209z"/>
		<path style="fill:#FFFFFF;" d="M362.835,340.278c-1.17,1.169-1.17,3.066,0,4.235c1.169,1.169,3.066,1.169,4.235,0
			c1.169-1.17,1.169-3.066,0-4.235C365.9,339.108,364.004,339.108,362.835,340.278z"/>
		<path style="fill:#FFFFFF;" d="M363.138,330.787c0-1.654-1.341-2.995-2.995-2.995c-1.654,0-2.995,1.341-2.995,2.995
			c0,1.654,1.341,2.995,2.995,2.995C361.798,333.782,363.138,332.441,363.138,330.787z"/>
		<path style="fill:#FFFFFF;" d="M362.835,317.061c-1.17,1.169-1.17,3.066,0,4.235c1.169,1.17,3.066,1.17,4.235,0
			c1.169-1.17,1.169-3.066,0-4.235C365.9,315.891,364.004,315.891,362.835,317.061z"/>
	</g>
	<rect x="65" y="54.598" style="fill:none;" width="375.333" height="27.681"/>
	<text transform="matrix(1 0 0 1 109.7853 75.4783)" style="fill:#FFFFFF; font-family:'Bungee-Regular'; font-size:29px;">CHATBOT CONCEPT</text>
</g>
<g id="OBJECTS">
	<g>
		<g>
			<path style="fill:#424242;" d="M309.509,131.16H193.158c-11.003,0-19.923,8.92-19.923,19.923v237.976
				c0,11.003,8.92,19.923,19.923,19.923h116.351c11.003,0,19.923-8.92,19.923-19.923V151.083
				C329.432,140.08,320.512,131.16,309.509,131.16z"/>
			<path style="fill:#E0E0E0;" d="M321.958,151.08v33.154h-141.25V151.08c0-6.86,5.588-12.449,12.449-12.449H309.51
				C316.37,138.631,321.958,144.22,321.958,151.08z"/>
			<path style="fill:#424242;" d="M213.179,138.633l2.853,9.388c0.55,1.81,2.219,3.047,4.111,3.047h62.383
				c1.892,0,3.561-1.237,4.111-3.047l2.853-9.388l-34.244-3.332L213.179,138.633z"/>
			<path style="fill:#616161;" d="M263.619,143.435h-24.571c-0.782,0-1.416,0.634-1.416,1.416c0,0.782,0.634,1.416,1.416,1.416
				h24.571c0.782,0,1.416-0.634,1.416-1.416C265.035,144.069,264.401,143.435,263.619,143.435z"/>
			<path style="fill:#616161;" d="M234.718,144.851c0,1.17-0.948,2.119-2.119,2.119c-1.17,0-2.118-0.949-2.118-2.119
				c0-1.17,0.949-2.118,2.118-2.118C233.77,142.733,234.718,143.681,234.718,144.851z"/>
			<path style="fill:#616161;" d="M272.185,144.851c0,1.17-0.948,2.119-2.118,2.119c-1.17,0-2.119-0.949-2.119-2.119
				c0-1.17,0.948-2.118,2.119-2.118C271.237,142.733,272.185,143.681,272.185,144.851z"/>
			<g>
				<path style="fill:#616161;" d="M312.561,172.378h-9.681c-0.446,0-0.807,0.361-0.807,0.807c0,0.446,0.361,0.807,0.807,0.807
					h9.681c0.445,0,0.807-0.361,0.807-0.807C313.367,172.739,313.006,172.378,312.561,172.378z"/>
				<path style="fill:#616161;" d="M312.561,175.186h-9.681c-0.446,0-0.807,0.361-0.807,0.807c0,0.446,0.361,0.807,0.807,0.807
					h9.681c0.445,0,0.807-0.361,0.807-0.807C313.367,175.548,313.006,175.186,312.561,175.186z"/>
				<path style="fill:#616161;" d="M312.561,177.995h-9.681c-0.446,0-0.807,0.361-0.807,0.807c0,0.445,0.361,0.807,0.807,0.807
					h9.681c0.445,0,0.807-0.361,0.807-0.807C313.367,178.356,313.006,177.995,312.561,177.995z"/>
			</g>
			<g>
				<polygon style="fill:#616161;" points="190.187,179.009 185.554,175.993 190.187,172.977 190.757,173.851 187.465,175.993 
					190.757,178.135 				"/>
			</g>
			<path style="fill:#BDBDBD;" d="M309.864,144.851c0,1.13,0.916,2.046,2.046,2.046c1.13,0,2.046-0.916,2.046-2.046
				s-0.916-2.046-2.046-2.046C310.78,142.805,309.864,143.721,309.864,144.851z"/>
			<path style="fill:#BDBDBD;" d="M302.891,144.851c0,1.13,0.916,2.046,2.046,2.046s2.046-0.916,2.046-2.046
				s-0.916-2.046-2.046-2.046S302.891,143.721,302.891,144.851z"/>
			<path style="fill:#BDBDBD;" d="M197.729,142.805h-6.973c-1.13,0-2.046,0.916-2.046,2.046c0,1.13,0.916,2.046,2.046,2.046h6.973
				c1.13,0,2.046-0.916,2.046-2.046C199.775,143.721,198.859,142.805,197.729,142.805z"/>
			<path style="fill:#E0E0E0;" d="M321.958,369.649v19.413c0,6.86-5.588,12.449-12.448,12.449H193.157
				c-6.86,0-12.449-5.588-12.449-12.449v-19.413H321.958z"/>
			<path style="fill:#FFFFFF;" d="M283.618,394.611h-64.57c-1.219,0-2.208,0.988-2.208,2.207c0,1.219,0.988,2.208,2.208,2.208h64.57
				c1.219,0,2.207-0.988,2.207-2.208C285.826,395.6,284.837,394.611,283.618,394.611z"/>
			<circle style="fill:#BDBDBD;" cx="200.007" cy="382.13" r="8.102"/>
			<circle style="fill:#BDBDBD;" cx="225.67" cy="382.13" r="8.102"/>
			<circle style="fill:#BDBDBD;" cx="251.333" cy="382.13" r="8.102"/>
			<circle style="fill:#BDBDBD;" cx="276.996" cy="382.13" r="8.102"/>
			<circle style="fill:#BDBDBD;" cx="302.659" cy="382.13" r="8.102"/>
			<rect x="180.708" y="184.234" style="fill:#EEEEEE;" width="141.25" height="185.415"/>
		</g>
		<g style="opacity:0.16;">
			<path style="fill:#757575;" d="M301.492,289.38v63.702c0,3.034-2.461,5.495-5.505,5.495H180.708v-74.702h115.279
				C299.032,283.875,301.492,286.336,301.492,289.38z"/>
			<path style="fill:#757575;" d="M321.958,202.083v74.702H206.679c-3.044,0-5.505-2.461-5.505-5.505v-63.702
				c0-3.034,2.461-5.495,5.505-5.495H321.958z"/>
		</g>
		<g>
			<g>
				<g>
					
						<ellipse transform="matrix(0.9011 -0.4337 0.4337 0.9011 -62.852 196.5755)" style="fill:#FFFFFF;" cx="399.42" cy="236.044" rx="39.58" ry="39.58"/>
					<g>
						<defs>
							
								<ellipse id="SVGID_1_" transform="matrix(0.9011 -0.4337 0.4337 0.9011 -62.852 196.5755)" cx="399.42" cy="236.044" rx="39.58" ry="39.58"/>
						</defs>
						<clipPath id="SVGID_00000001655792224836304380000014022024861471382195_">
							<use xlink:href="#SVGID_1_"  style="overflow:visible;"/>
						</clipPath>
						<g style="clip-path:url(#SVGID_00000001655792224836304380000014022024861471382195_);">
							<path style="fill:#424242;" d="M405.622,256.584h-12.333c-7.11,0-12.874,5.764-12.874,12.874v6.167h38.081v-6.167
								C418.496,262.348,412.732,256.584,405.622,256.584z"/>
							<path style="fill:#424242;" d="M399.455,204.975L399.455,204.975c-11.666,0-21.123,9.457-21.123,21.123v4.067
								c0,11.666,9.457,21.123,21.123,21.123h0c11.666,0,21.123-9.457,21.123-21.123v-4.067
								C420.579,214.433,411.121,204.975,399.455,204.975z"/>
							<rect x="394.497" y="247.552" style="fill:#9B7268;" width="9.845" height="11.626"/>
							<path style="fill:#7F5B54;" d="M394.497,255.097c1.573,0.407,3.222,0.624,4.923,0.624h0c1.7,0,3.35-0.217,4.923-0.624v-7.231
								h-9.845V255.097z"/>
							<circle style="fill:#9B7268;" cx="419.006" cy="230.165" r="4.504"/>
							<path style="fill:#7F5B54;" d="M416.492,230.165c0,1.388,1.125,2.514,2.514,2.514c1.388,0,2.514-1.125,2.514-2.514
								s-1.125-2.514-2.514-2.514C417.617,227.652,416.492,228.777,416.492,230.165z"/>
							<path style="fill:#9B7268;" d="M384.338,230.165c0,2.487-2.016,4.504-4.504,4.504s-4.504-2.016-4.504-4.504
								c0-2.487,2.016-4.504,4.504-4.504S384.338,227.678,384.338,230.165z"/>
							<path style="fill:#7F5B54;" d="M382.348,230.165c0,1.388-1.125,2.514-2.514,2.514c-1.388,0-2.514-1.125-2.514-2.514
								s1.125-2.514,2.514-2.514C381.223,227.652,382.348,228.777,382.348,230.165z"/>
							<path style="fill:#9B7268;" d="M399.42,206.809L399.42,206.809c-10.817,0-19.586,8.769-19.586,19.586v7.541
								c0,10.817,8.769,19.586,19.586,19.586l0,0c10.817,0,19.586-8.769,19.586-19.586v-7.541
								C419.006,215.578,410.237,206.809,399.42,206.809z"/>
							<path style="fill:#424242;" d="M392.721,229.118c0,1.388-1.126,2.514-2.514,2.514c-1.388,0-2.514-1.125-2.514-2.514
								c0-1.388,1.125-2.514,2.514-2.514C391.596,226.604,392.721,227.73,392.721,229.118z"/>
							<path style="fill:#424242;" d="M411.146,229.118c0,1.388-1.125,2.514-2.514,2.514c-1.388,0-2.514-1.125-2.514-2.514
								c0-1.388,1.125-2.514,2.514-2.514C410.021,226.604,411.146,227.73,411.146,229.118z"/>
							<path style="fill:#916961;" d="M389.991,234.594c0,0.938-0.76,1.699-1.699,1.699c-0.938,0-1.698-0.76-1.698-1.699
								c0-0.938,0.76-1.699,1.698-1.699C389.231,232.895,389.991,233.656,389.991,234.594z"/>
							<path style="fill:#916961;" d="M408.849,234.594c0,0.938,0.76,1.699,1.699,1.699c0.938,0,1.698-0.76,1.698-1.699
								c0-0.938-0.76-1.699-1.698-1.699C409.609,232.895,408.849,233.656,408.849,234.594z"/>
							<g>
								<rect x="393.976" y="241.182" style="fill:#FAFAFA;" width="10.958" height="1.649"/>
								<path style="fill:#90322D;" d="M393.976,242.831c0,1.96,2.453,3.55,5.479,3.55c3.026,0,5.479-1.589,5.479-3.55H393.976z"/>
								<path style="fill:#B04140;" d="M402.638,245.717c-0.896,0.419-1.994,0.663-3.182,0.663c-1.188,0-2.286-0.244-3.182-0.663
									c0.353-1.193,1.644-2.08,3.182-2.08C400.991,243.637,402.284,244.524,402.638,245.717z"/>
							</g>
							<path style="fill:#7F5B54;" d="M401.535,236.044c-0.352-2.52-0.988-6.236-1.464-7.872c-0.212-0.728-1.018-0.728-1.23,0
								c-0.477,1.636-1.113,5.352-1.465,7.872c-0.176,1.264,0.804,2.389,2.08,2.389h0
								C400.732,238.434,401.711,237.308,401.535,236.044z"/>
							<path style="fill:#424242;" d="M379.005,223.085v6.376c0,0.797,0.646,1.443,1.443,1.443c0.797,0,1.442-0.646,1.442-1.443
								v-6.376H379.005z"/>
							<path style="fill:#424242;" d="M419.906,223.085v6.376c0,0.797-0.646,1.443-1.443,1.443c-0.797,0-1.443-0.646-1.443-1.443
								v-6.376H419.906z"/>
							<path style="fill:#424242;" d="M403.097,206.809h-7.283c-8.806,0-15.944,7.138-15.944,15.944v0.332h2.02v-2.028
								c0-0.675,0.547-1.223,1.223-1.223h32.686c0.675,0,1.223,0.547,1.223,1.223v2.028h2.02v-0.332
								C419.041,213.947,411.903,206.809,403.097,206.809z"/>
							<path style="fill:#9B7268;" d="M407.515,256.738c-0.619-0.091-1.248-0.154-1.893-0.154h-12.333
								c-0.645,0-1.273,0.063-1.893,0.154c0.606,3.494,3.978,6.172,8.059,6.172S406.909,260.233,407.515,256.738z"/>
						</g>
					</g>
				</g>
				<g>
					<path style="fill:#00E676;" d="M335.468,198.692H206.675c-3.038,0-5.502,2.463-5.502,5.502v63.701
						c0,3.039,2.463,5.502,5.502,5.502h128.793c3.039,0,5.502-2.463,5.502-5.502v-63.701
						C340.97,201.155,338.507,198.692,335.468,198.692z"/>
					<polygon style="fill:#00E676;" points="340.97,210.549 324.79,210.549 340.97,226.711 357.149,210.549 					"/>
					<rect x="213.779" y="210.549" style="fill:#FFFFFF;" width="17.082" height="6.693"/>
					<rect x="239.922" y="210.549" style="fill:#FFFFFF;" width="40.984" height="6.693"/>
					<rect x="289.966" y="210.549" style="fill:#FFFFFF;" width="38.398" height="6.693"/>
					<rect x="213.779" y="223.37" style="fill:#FFFFFF;" width="41.791" height="6.682"/>
					<rect x="264.631" y="223.37" style="fill:#FFFFFF;" width="35.845" height="6.682"/>
					<rect x="309.535" y="223.37" style="fill:#FFFFFF;" width="18.828" height="6.682"/>
					<rect x="213.779" y="236.179" style="fill:#FFFFFF;" width="19.981" height="6.693"/>
					<rect x="242.821" y="236.179" style="fill:#FFFFFF;" width="53.734" height="6.693"/>
					<rect x="305.615" y="236.179" style="fill:#FFFFFF;" width="22.749" height="6.693"/>
					<rect x="213.779" y="248.992" style="fill:#FFFFFF;" width="46.947" height="6.689"/>
				</g>
			</g>
			<g>
				<g>
					
						<ellipse transform="matrix(0.9739 -0.2271 0.2271 0.9739 -69.4698 31.7436)" style="fill:#424242;" cx="103.247" cy="317.839" rx="39.58" ry="39.58"/>
					<g>
						<defs>
							
								<ellipse id="SVGID_00000174570539460464649170000007698570567530306696_" transform="matrix(0.9739 -0.2271 0.2271 0.9739 -69.4698 31.7436)" cx="103.247" cy="317.839" rx="39.58" ry="39.58"/>
						</defs>
						<clipPath id="SVGID_00000003072271064584795430000000051658825962764436_">
							<use xlink:href="#SVGID_00000174570539460464649170000007698570567530306696_"  style="overflow:visible;"/>
						</clipPath>
						<g style="clip-path:url(#SVGID_00000003072271064584795430000000051658825962764436_);">
							<g>
								<rect x="82.171" y="288.988" style="fill:#424242;" width="0.499" height="15.642"/>
								<path style="fill:#039BE5;" d="M83.741,288.091c0,0.729-0.591,1.32-1.32,1.32s-1.32-0.591-1.32-1.32
									c0-0.729,0.591-1.32,1.32-1.32S83.741,287.362,83.741,288.091z"/>
								<path style="fill:#FFFFFF;" d="M81.595,287.317c-0.24,0.24-0.348,0.52-0.243,0.625c0.106,0.106,0.385-0.003,0.625-0.243
									c0.24-0.24,0.348-0.519,0.243-0.625C82.115,286.969,81.835,287.077,81.595,287.317z"/>
								<path style="fill:#BDBDBD;" d="M81.866,300.212c-0.775,0-1.403,0.628-1.403,1.403v3.399c0,0.775,0.628,1.402,1.403,1.402
									h5.403v-6.204H81.866z"/>
								<path style="fill:#EEEEEE;" d="M118.85,295.616H87.643c-2.272,0-4.114,1.842-4.114,4.114V327
									c0,2.272,1.842,4.114,4.114,4.114h31.207c2.272,0,4.114-1.842,4.114-4.114V299.73
									C122.965,297.458,121.122,295.616,118.85,295.616z"/>
								<path style="fill:#FFFFFF;" d="M87.643,329.637c-1.454,0-2.637-1.183-2.637-2.637V299.73c0-1.454,1.183-2.637,2.637-2.637
									h31.207c1.454,0,2.637,1.183,2.637,2.637V327c0,1.454-1.183,2.637-2.637,2.637H87.643z"/>
								<path style="fill:#424242;" d="M112.58,301.9H94.098c-3.166,0-5.732,2.567-5.732,5.733s2.566,5.732,5.732,5.732h18.482
									c3.166,0,5.733-2.566,5.733-5.732S115.746,301.9,112.58,301.9z"/>
								<path style="fill:#039BE5;" d="M77.898,313.365c0,3.11,2.521,5.631,5.631,5.631v-11.261
									C80.419,307.734,77.898,310.255,77.898,313.365z"/>
								<path style="fill:#039BE5;" d="M128.595,313.365c0,3.11-2.521,5.631-5.631,5.631v-11.261
									C126.074,307.734,128.595,310.255,128.595,313.365z"/>
								<rect x="98.076" y="331.114" style="fill:#E0E0E0;" width="10.342" height="8.792"/>
								<polygon style="fill:#BDBDBD;" points="108.418,332.776 98.076,331.945 98.076,331.114 108.418,331.114 								"/>
								<g>
									<path style="fill:#039BE5;" d="M100.719,309.566c-0.38,0-0.687,0.308-0.687,0.687c0,0.38,0.308,0.687,0.687,0.687
										s0.687-0.308,0.687-0.687C101.406,309.873,101.098,309.566,100.719,309.566z"/>
									<circle style="fill:#039BE5;" cx="103.339" cy="310.253" r="0.687"/>
									<circle style="fill:#039BE5;" cx="105.959" cy="310.253" r="0.687"/>
									<path style="fill:#039BE5;" d="M98.098,306.945c-0.38,0-0.687,0.308-0.687,0.687c0,0.38,0.308,0.688,0.687,0.688
										c0.38,0,0.687-0.308,0.687-0.688C98.785,307.253,98.478,306.945,98.098,306.945z"/>
									<path style="fill:#039BE5;" d="M100.719,306.945c-0.38,0-0.687,0.308-0.687,0.687c0,0.38,0.308,0.688,0.687,0.688
										s0.687-0.308,0.687-0.688C101.406,307.253,101.098,306.945,100.719,306.945z"/>
									<path style="fill:#039BE5;" d="M103.339,306.945c-0.38,0-0.687,0.308-0.687,0.687c0,0.38,0.308,0.688,0.687,0.688
										s0.687-0.308,0.687-0.688C104.026,307.253,103.719,306.945,103.339,306.945z"/>
									<path style="fill:#039BE5;" d="M105.959,306.945c-0.38,0-0.687,0.308-0.687,0.687c0,0.38,0.308,0.688,0.687,0.688
										s0.687-0.308,0.687-0.688C106.647,307.253,106.339,306.945,105.959,306.945z"/>
									<path style="fill:#039BE5;" d="M108.58,306.945c-0.38,0-0.688,0.308-0.688,0.687c0,0.38,0.308,0.688,0.688,0.688
										c0.38,0,0.687-0.308,0.687-0.688C109.267,307.253,108.959,306.945,108.58,306.945z"/>
									<path style="fill:#039BE5;" d="M100.719,304.325c-0.38,0-0.687,0.308-0.687,0.687c0,0.38,0.308,0.687,0.687,0.687
										s0.687-0.308,0.687-0.687C101.406,304.633,101.098,304.325,100.719,304.325z"/>
									<path style="fill:#039BE5;" d="M103.339,304.325c-0.38,0-0.687,0.308-0.687,0.687c0,0.38,0.308,0.687,0.687,0.687
										s0.687-0.308,0.687-0.687C104.026,304.633,103.719,304.325,103.339,304.325z"/>
									<path style="fill:#039BE5;" d="M105.959,304.325c-0.38,0-0.687,0.308-0.687,0.687c0,0.38,0.308,0.687,0.687,0.687
										s0.687-0.308,0.687-0.687C106.647,304.633,106.339,304.325,105.959,304.325z"/>
								</g>
								<g>
									<path style="fill:#424242;" d="M106.302,324.263c0.222,0,0.403-0.18,0.403-0.403v-3.973c0-0.222-0.18-0.403-0.403-0.403
										c-0.223,0-0.403,0.18-0.403,0.403v3.973C105.9,324.083,106.08,324.263,106.302,324.263z"/>
									<path style="fill:#424242;" d="M104.774,325.319c0.223,0,0.403-0.18,0.403-0.403v-6.084c0-0.222-0.18-0.403-0.403-0.403
										c-0.222,0-0.403,0.18-0.403,0.403v6.084C104.372,325.138,104.552,325.319,104.774,325.319z"/>
									<path style="fill:#424242;" d="M103.247,326.374c0.223,0,0.403-0.18,0.403-0.403v-8.195c0-0.222-0.18-0.403-0.403-0.403
										s-0.403,0.18-0.403,0.403v8.195C102.844,326.194,103.024,326.374,103.247,326.374z"/>
									<path style="fill:#424242;" d="M101.719,325.319c0.223,0,0.403-0.18,0.403-0.403v-6.084c0-0.222-0.18-0.403-0.403-0.403
										c-0.222,0-0.403,0.18-0.403,0.403v6.084C101.316,325.138,101.496,325.319,101.719,325.319z"/>
									<path style="fill:#424242;" d="M100.191,324.263c0.223,0,0.403-0.18,0.403-0.403v-3.973c0-0.222-0.18-0.403-0.403-0.403
										c-0.222,0-0.403,0.18-0.403,0.403v3.973C99.788,324.083,99.968,324.263,100.191,324.263z"/>
								</g>
								<path style="fill:#616161;" d="M113.944,304.021c0,0.547-4.748,0.991-10.605,0.991c-5.857,0-10.605-0.444-10.605-0.991
									s4.748-0.991,10.605-0.991C109.196,303.03,113.944,303.474,113.944,304.021z"/>
							</g>
							<path style="fill:#FFFFFF;" d="M109.413,338.124H97.08c-7.11,0-12.874,5.764-12.874,12.874v6.167h38.081v-6.167
								C122.287,343.888,116.523,338.124,109.413,338.124z"/>
						</g>
					</g>
				</g>
				<g>
					<path style="fill:#FFFFFF;" d="M295.992,280.487H167.199c-3.039,0-5.502,2.463-5.502,5.502v63.701
						c0,3.038,2.463,5.502,5.502,5.502h128.793c3.038,0,5.502-2.463,5.502-5.502v-63.701
						C301.493,282.95,299.03,280.487,295.992,280.487z"/>
					<polygon style="fill:#FFFFFF;" points="161.697,292.344 145.518,292.344 161.697,308.506 177.876,292.344 					"/>
					<g>
						<rect x="174.303" y="292.344" style="fill:#424242;" width="32.751" height="6.693"/>
						<rect x="216.114" y="292.344" style="fill:#424242;" width="40.355" height="6.693"/>
						<rect x="265.529" y="292.344" style="fill:#424242;" width="23.358" height="6.693"/>
						<rect x="174.303" y="305.165" style="fill:#424242;" width="35.64" height="6.682"/>
						<rect x="219.003" y="305.165" style="fill:#424242;" width="26.022" height="6.682"/>
						<rect x="254.086" y="305.165" style="fill:#424242;" width="34.801" height="6.682"/>
						<rect x="174.303" y="317.974" style="fill:#424242;" width="13.29" height="6.693"/>
						<rect x="196.653" y="317.974" style="fill:#424242;" width="47.611" height="6.693"/>
						<rect x="253.325" y="317.974" style="fill:#424242;" width="35.562" height="6.693"/>
						<rect x="174.303" y="330.787" style="fill:#424242;" width="64.751" height="6.689"/>
					</g>
				</g>
			</g>
		</g>
	</g>
</g>
<g id="DESIGNED_BY_FREEPIK">
	<g>
		<g>
			<path style="fill:#FFFFFF;" d="M175.869,475.946c-0.14-0.17-0.34-0.25-0.61-0.25c-0.27,0-0.47,0.09-0.62,0.27
				c-0.14,0.191-0.21,0.46-0.21,0.82v2.6c-0.33-0.359-0.67-0.63-1.02-0.81c-0.35-0.17-0.77-0.26-1.28-0.26
				c-0.87,0-1.58,0.31-2.12,0.92c-0.53,0.62-0.8,1.47-0.8,2.57c0,0.52,0.07,1,0.2,1.449c0.14,0.45,0.33,0.841,0.6,1.17
				c0.26,0.33,0.57,0.58,0.93,0.761c0.35,0.18,0.74,0.27,1.16,0.27c0.32,0,0.62-0.05,0.88-0.14c0.27-0.08,0.52-0.21,0.75-0.38
				c0.23-0.17,0.46-0.391,0.7-0.66v0.17c0,0.32,0.08,0.57,0.23,0.75c0.16,0.17,0.36,0.26,0.6,0.26c0.24,0,0.44-0.09,0.6-0.25
				c0.15-0.17,0.23-0.42,0.23-0.76v-7.75C176.089,476.366,176.019,476.116,175.869,475.946z M174.099,483.116
				c-0.15,0.33-0.35,0.58-0.61,0.74c-0.25,0.16-0.54,0.24-0.84,0.24c-0.31,0-0.59-0.091-0.85-0.261c-0.26-0.17-0.46-0.42-0.61-0.75
				c-0.14-0.34-0.22-0.739-0.22-1.22c0-0.45,0.07-0.85,0.21-1.19c0.14-0.34,0.34-0.6,0.59-0.779c0.25-0.181,0.54-0.28,0.86-0.28
				c0.31,0,0.6,0.09,0.86,0.27c0.26,0.181,0.46,0.44,0.61,0.771c0.16,0.34,0.23,0.74,0.23,1.21
				C174.329,482.366,174.259,482.776,174.099,483.116z"/>
			<path style="fill:#FFFFFF;" d="M182.919,483.036c-0.17,0-0.3,0.04-0.39,0.12c-0.22,0.2-0.4,0.37-0.53,0.49
				c-0.14,0.12-0.29,0.229-0.45,0.34c-0.17,0.1-0.33,0.18-0.51,0.229c-0.17,0.051-0.36,0.07-0.57,0.07c-0.32,0-0.6-0.08-0.86-0.229
				c-0.26-0.15-0.47-0.381-0.63-0.69c-0.16-0.3-0.24-0.66-0.24-1.05h3.44c0.46,0,0.81-0.07,1.07-0.2c0.25-0.13,0.38-0.42,0.38-0.86
				c0-0.479-0.13-0.939-0.37-1.399c-0.24-0.46-0.61-0.84-1.11-1.13c-0.49-0.29-1.08-0.431-1.76-0.431c-0.53,0-1.01,0.08-1.44,0.25
				c-0.44,0.17-0.8,0.42-1.1,0.73c-0.29,0.32-0.52,0.7-0.67,1.149c-0.16,0.44-0.24,0.921-0.24,1.44c0,1.1,0.32,1.98,0.94,2.62
				c0.63,0.64,1.51,0.97,2.64,0.97c0.49,0,0.93-0.07,1.31-0.2c0.38-0.13,0.69-0.29,0.94-0.479c0.25-0.2,0.44-0.4,0.57-0.61
				c0.12-0.22,0.18-0.399,0.18-0.56c0-0.181-0.05-0.32-0.16-0.42C183.239,483.086,183.099,483.036,182.919,483.036z
				 M179.249,479.966c0.28-0.3,0.64-0.449,1.08-0.449c0.46,0,0.83,0.149,1.11,0.449c0.28,0.301,0.44,0.75,0.49,1.351h-3.19
				C178.799,480.727,178.969,480.276,179.249,479.966z"/>
			<path style="fill:#FFFFFF;" d="M189.919,482.296c-0.18-0.25-0.44-0.47-0.79-0.649c-0.34-0.19-0.79-0.351-1.33-0.481
				c-0.46-0.109-0.82-0.21-1.08-0.28c-0.27-0.079-0.47-0.18-0.63-0.3c-0.15-0.109-0.23-0.27-0.23-0.45c0-0.199,0.1-0.369,0.31-0.51
				c0.22-0.13,0.48-0.2,0.8-0.2c0.31,0,0.55,0.051,0.73,0.16c0.18,0.101,0.34,0.24,0.47,0.41c0.16,0.2,0.31,0.36,0.43,0.46
				c0.13,0.101,0.28,0.16,0.46,0.16c0.25,0,0.45-0.07,0.58-0.2c0.14-0.13,0.2-0.29,0.2-0.49c0-0.19-0.06-0.38-0.19-0.569
				c-0.12-0.19-0.31-0.37-0.55-0.53c-0.24-0.16-0.54-0.28-0.91-0.38c-0.36-0.09-0.77-0.14-1.22-0.14c-0.58,0-1.08,0.09-1.49,0.279
				c-0.41,0.19-0.72,0.44-0.93,0.75c-0.21,0.311-0.31,0.65-0.31,1c0,0.391,0.11,0.73,0.34,1c0.23,0.271,0.53,0.49,0.91,0.65
				c0.38,0.16,0.87,0.32,1.48,0.47c0.53,0.13,0.92,0.271,1.15,0.41c0.24,0.14,0.35,0.37,0.35,0.67c0,0.21-0.11,0.38-0.33,0.54
				c-0.23,0.16-0.52,0.24-0.87,0.24c-0.43,0-0.78-0.08-1.03-0.23c-0.25-0.16-0.46-0.39-0.65-0.71c-0.08-0.16-0.18-0.29-0.28-0.38
				c-0.1-0.09-0.24-0.13-0.42-0.13c-0.21,0-0.39,0.07-0.52,0.2c-0.14,0.14-0.21,0.31-0.21,0.5c0,0.29,0.11,0.58,0.32,0.87
				c0.22,0.29,0.55,0.529,1,0.729c0.45,0.19,0.99,0.29,1.62,0.29c0.66,0,1.22-0.09,1.68-0.27c0.47-0.181,0.82-0.44,1.05-0.79
				c0.24-0.34,0.35-0.761,0.35-1.24C190.179,482.836,190.099,482.546,189.919,482.296z"/>
			<path style="fill:#FFFFFF;" d="M192.599,478.576c-0.17-0.18-0.38-0.27-0.64-0.27c-0.26,0-0.47,0.09-0.63,0.27
				c-0.16,0.17-0.24,0.43-0.24,0.78v5.029c0,0.341,0.08,0.601,0.24,0.79c0.16,0.181,0.37,0.28,0.63,0.28c0.26,0,0.47-0.09,0.64-0.27
				c0.17-0.181,0.25-0.45,0.25-0.801v-5.079C192.849,478.996,192.769,478.746,192.599,478.576z M192.579,475.986
				c-0.17-0.14-0.37-0.22-0.6-0.22c-0.24,0-0.44,0.08-0.62,0.25c-0.18,0.159-0.27,0.359-0.27,0.609c0,0.28,0.09,0.49,0.26,0.641
				c0.18,0.149,0.39,0.22,0.63,0.22c0.24,0,0.44-0.07,0.61-0.22c0.17-0.16,0.26-0.37,0.26-0.641
				C192.849,476.347,192.759,476.136,192.579,475.986z"/>
			<path style="fill:#FFFFFF;" d="M200.379,478.636c-0.11-0.22-0.34-0.329-0.68-0.329c-0.23,0-0.43,0.09-0.58,0.25
				c-0.15,0.17-0.22,0.409-0.22,0.71v0.239c-0.31-0.409-0.65-0.71-1.02-0.899c-0.36-0.19-0.79-0.29-1.29-0.29
				c-0.42,0-0.8,0.08-1.15,0.229c-0.35,0.141-0.65,0.36-0.92,0.66c-0.26,0.29-0.47,0.65-0.61,1.07c-0.15,0.43-0.22,0.899-0.22,1.43
				c0,0.71,0.12,1.33,0.36,1.87c0.23,0.54,0.57,0.96,1.01,1.26c0.44,0.311,0.95,0.46,1.54,0.46c0.49,0,0.91-0.1,1.27-0.3
				c0.35-0.2,0.66-0.49,0.93-0.86c-0.01,0.57-0.02,0.99-0.04,1.25c-0.01,0.261-0.07,0.5-0.17,0.73c-0.1,0.23-0.28,0.4-0.53,0.53
				c-0.25,0.13-0.6,0.189-1.06,0.189c-0.22,0-0.42-0.02-0.59-0.06c-0.17-0.04-0.32-0.101-0.44-0.19c-0.12-0.08-0.24-0.18-0.34-0.3
				c-0.1-0.12-0.2-0.24-0.29-0.35c-0.19-0.23-0.42-0.34-0.68-0.34c-0.2,0-0.38,0.069-0.52,0.199c-0.15,0.141-0.22,0.311-0.22,0.53
				c0,0.28,0.13,0.55,0.38,0.82c0.26,0.269,0.63,0.489,1.1,0.66c0.48,0.17,1.02,0.25,1.63,0.25c0.66,0,1.21-0.061,1.65-0.2
				c0.45-0.13,0.81-0.33,1.08-0.61c0.28-0.27,0.48-0.62,0.6-1.04c0.12-0.42,0.19-0.92,0.19-1.51v-5.1
				C200.549,479.176,200.489,478.856,200.379,478.636z M198.589,483.046c-0.16,0.311-0.37,0.551-0.63,0.7
				c-0.26,0.16-0.54,0.24-0.83,0.24c-0.49,0-0.9-0.18-1.21-0.55c-0.31-0.36-0.46-0.9-0.46-1.61c0-0.71,0.15-1.25,0.45-1.63
				c0.3-0.38,0.7-0.58,1.21-0.58c0.51,0,0.93,0.2,1.24,0.6c0.32,0.4,0.48,0.96,0.48,1.681
				C198.839,482.347,198.749,482.727,198.589,483.046z"/>
			<path style="fill:#FFFFFF;" d="M207.899,480.156c-0.03-0.24-0.11-0.48-0.22-0.691c-0.18-0.369-0.45-0.649-0.82-0.859
				c-0.36-0.2-0.78-0.3-1.24-0.3c-0.48,0-0.9,0.1-1.27,0.29c-0.1,0.05-0.19,0.109-0.29,0.18c-0.25,0.18-0.49,0.42-0.72,0.72v-0.22
				c0-0.21-0.04-0.391-0.11-0.53c-0.08-0.149-0.18-0.26-0.3-0.33c-0.13-0.069-0.27-0.109-0.42-0.109c-0.25,0-0.45,0.079-0.6,0.25
				c-0.15,0.159-0.22,0.409-0.22,0.75v5.079c0,0.341,0.08,0.601,0.25,0.79c0.16,0.181,0.37,0.28,0.62,0.28
				c0.26,0,0.48-0.09,0.64-0.27c0.17-0.181,0.25-0.45,0.25-0.801v-2.199c0-0.721,0.04-1.21,0.13-1.471
				c0.12-0.33,0.31-0.58,0.56-0.77c0.26-0.19,0.55-0.28,0.86-0.28c0.48,0,0.8,0.15,0.96,0.46c0.16,0.31,0.24,0.75,0.24,1.33v2.93
				c0,0.341,0.09,0.601,0.25,0.79c0.16,0.181,0.37,0.28,0.64,0.28c0.25,0,0.46-0.09,0.62-0.27c0.17-0.181,0.25-0.45,0.25-0.801
				v-3.27C207.959,480.727,207.939,480.406,207.899,480.156z"/>
			<path style="fill:#FFFFFF;" d="M214.769,483.036c-0.17,0-0.29,0.04-0.38,0.12c-0.22,0.2-0.4,0.37-0.54,0.49
				c-0.14,0.12-0.29,0.229-0.45,0.34c-0.16,0.1-0.33,0.18-0.5,0.229c-0.17,0.051-0.35,0.07-0.55,0.07h-0.01c-0.01,0-0.01,0-0.02,0
				c-0.31,0-0.6-0.08-0.86-0.229c-0.26-0.15-0.47-0.381-0.62-0.69c-0.03-0.06-0.06-0.11-0.08-0.17v-0.01
				c-0.11-0.261-0.16-0.56-0.17-0.87h3.44c0.46,0,0.82-0.07,1.07-0.2c0.25-0.13,0.38-0.42,0.38-0.86c0-0.479-0.12-0.939-0.37-1.399
				c-0.24-0.46-0.61-0.84-1.1-1.13c-0.49-0.29-1.08-0.431-1.77-0.431c-0.53,0-1.01,0.08-1.44,0.25c-0.43,0.17-0.8,0.42-1.09,0.73
				c-0.3,0.32-0.53,0.7-0.68,1.149c-0.15,0.44-0.23,0.921-0.23,1.44c0,1.1,0.31,1.98,0.94,2.62c0.62,0.64,1.5,0.97,2.63,0.97
				c0.49,0,0.93-0.07,1.31-0.2c0.01,0,0.03-0.01,0.04-0.01c0.36-0.13,0.66-0.29,0.91-0.47c0.25-0.2,0.43-0.4,0.56-0.61
				c0.12-0.22,0.19-0.399,0.19-0.56c0-0.181-0.06-0.32-0.17-0.42C215.099,483.086,214.949,483.036,214.769,483.036z
				 M211.109,479.966c0.28-0.3,0.64-0.449,1.07-0.449c0.46,0,0.83,0.149,1.11,0.449c0.29,0.301,0.45,0.75,0.49,1.351h-3.19
				C210.649,480.727,210.819,480.276,211.109,479.966z"/>
			<path style="fill:#FFFFFF;" d="M222.639,475.946c-0.14-0.17-0.35-0.25-0.61-0.25c-0.271,0-0.48,0.09-0.62,0.27
				c-0.14,0.191-0.22,0.46-0.22,0.82v2.6c-0.33-0.359-0.66-0.63-1.01-0.81c-0.35-0.17-0.78-0.26-1.28-0.26
				c-0.88,0-1.58,0.31-2.12,0.92c-0.54,0.62-0.81,1.47-0.81,2.57c0,0.52,0.07,1,0.21,1.449c0.13,0.45,0.33,0.841,0.59,1.17
				c0.26,0.33,0.57,0.58,0.93,0.761c0.36,0.18,0.75,0.27,1.17,0.27c0.32,0,0.61-0.05,0.88-0.14c0.27-0.08,0.52-0.21,0.75-0.38
				c0.23-0.17,0.46-0.391,0.69-0.66v0.17c0,0.32,0.08,0.57,0.24,0.75c0.16,0.17,0.35,0.26,0.6,0.26c0.24,0,0.44-0.09,0.59-0.25
				c0.16-0.17,0.24-0.42,0.24-0.76v-7.75C222.859,476.366,222.779,476.116,222.639,475.946z M220.869,483.116
				c-0.15,0.33-0.36,0.58-0.61,0.74c-0.26,0.16-0.54,0.24-0.85,0.24c-0.3,0-0.58-0.091-0.84-0.261c-0.26-0.17-0.46-0.42-0.61-0.75
				c-0.15-0.34-0.22-0.739-0.22-1.22c0-0.45,0.07-0.85,0.21-1.19c0.14-0.34,0.33-0.6,0.59-0.779c0.25-0.181,0.54-0.28,0.86-0.28
				c0.31,0,0.59,0.09,0.85,0.27c0.26,0.181,0.47,0.44,0.62,0.771c0.15,0.34,0.23,0.74,0.23,1.21
				C221.099,482.366,221.019,482.776,220.869,483.116z"/>
			<path style="fill:#FFFFFF;" d="M233.219,479.936c-0.24-0.521-0.58-0.92-1.02-1.2c-0.44-0.28-0.95-0.42-1.54-0.42
				c-0.5,0-0.93,0.1-1.27,0.28c-0.35,0.18-0.68,0.439-1.01,0.789v-2.689c0-0.32-0.08-0.57-0.22-0.74c-0.15-0.18-0.36-0.26-0.63-0.26
				c-0.25,0-0.45,0.09-0.6,0.27c-0.14,0.181-0.21,0.45-0.21,0.811v7.67c0,0.33,0.07,0.58,0.22,0.75c0.15,0.17,0.34,0.26,0.59,0.26
				s0.45-0.09,0.61-0.26c0.16-0.17,0.24-0.42,0.24-0.75v-0.17c0.19,0.22,0.35,0.39,0.46,0.5c0.12,0.109,0.26,0.22,0.43,0.33
				c0.17,0.1,0.37,0.189,0.61,0.25c0.24,0.06,0.49,0.1,0.76,0.1c0.44,0,0.85-0.09,1.22-0.27c0.36-0.181,0.68-0.431,0.93-0.761
				c0.26-0.319,0.46-0.71,0.59-1.149c0.14-0.45,0.2-0.93,0.2-1.47C233.579,481.086,233.459,480.466,233.219,479.936z
				 M231.339,483.517c-0.32,0.39-0.7,0.58-1.14,0.58c-0.52,0-0.94-0.19-1.26-0.57c-0.32-0.37-0.48-0.91-0.48-1.61
				c0-0.47,0.08-0.89,0.23-1.229c0.15-0.351,0.35-0.61,0.61-0.79c0.27-0.181,0.56-0.28,0.9-0.28c0.32,0,0.61,0.1,0.85,0.28
				c0.25,0.18,0.44,0.439,0.57,0.769c0.13,0.34,0.2,0.74,0.2,1.2C231.819,482.586,231.659,483.136,231.339,483.517z"/>
			<path style="fill:#FFFFFF;" d="M240.009,478.696c-0.07-0.12-0.16-0.21-0.28-0.28c-0.12-0.069-0.25-0.109-0.38-0.109
				c-0.19,0-0.33,0.029-0.43,0.1c-0.1,0.059-0.2,0.19-0.29,0.37c-0.09,0.189-0.19,0.439-0.3,0.77l-1.41,4.021l-1.49-4.33
				c-0.1-0.3-0.21-0.53-0.34-0.69c-0.13-0.16-0.32-0.239-0.57-0.239c-0.15,0-0.29,0.04-0.42,0.119c-0.14,0.07-0.25,0.181-0.32,0.31
				c-0.08,0.12-0.12,0.26-0.12,0.41c0,0.149,0.07,0.37,0.2,0.689l2.16,5.44l-0.16,0.399c-0.12,0.28-0.22,0.5-0.32,0.65
				c-0.09,0.15-0.19,0.25-0.31,0.31c-0.11,0.061-0.27,0.091-0.47,0.091c-0.09,0-0.18-0.011-0.29-0.04
				c-0.09-0.021-0.19-0.04-0.28-0.04c-0.24,0-0.42,0.06-0.54,0.17c-0.13,0.109-0.19,0.26-0.19,0.46c0,0.3,0.13,0.5,0.39,0.62
				c0.26,0.109,0.64,0.16,1.16,0.16c0.521,0,0.94-0.08,1.25-0.24c0.32-0.16,0.57-0.391,0.75-0.69c0.19-0.3,0.39-0.71,0.58-1.24
				l2.3-6c0.05-0.159,0.1-0.31,0.14-0.46c0.039-0.149,0.06-0.27,0.08-0.35C240.109,478.946,240.079,478.816,240.009,478.696z"/>
		</g>
		<g>
			<path style="fill:#FFFFFF;" d="M261.319,478.459h0.419v-0.527c0-0.552,0.067-0.987,0.207-1.313
				c0.139-0.324,0.377-0.561,0.71-0.708c0.332-0.147,0.788-0.222,1.367-0.222c1.029,0,1.54,0.249,1.54,0.755
				c0,0.162-0.054,0.302-0.163,0.417c-0.104,0.115-0.232,0.174-0.378,0.174c-0.067,0-0.188-0.013-0.357-0.04
				c-0.161-0.022-0.307-0.038-0.422-0.038c-0.317,0-0.52,0.096-0.614,0.281c-0.086,0.186-0.132,0.453-0.132,0.803v0.418h0.429
				c0.672,0,1.004,0.201,1.004,0.607c0,0.284-0.086,0.468-0.267,0.545c-0.177,0.078-0.423,0.116-0.737,0.116h-0.429v4.656
				c0,0.347-0.082,0.61-0.25,0.792c-0.164,0.185-0.376,0.275-0.639,0.275c-0.249,0-0.455-0.091-0.622-0.275
				c-0.166-0.182-0.247-0.445-0.247-0.792v-4.656h-0.484c-0.263,0-0.462-0.057-0.605-0.178c-0.142-0.115-0.213-0.271-0.213-0.459
				C260.435,478.668,260.73,478.459,261.319,478.459L261.319,478.459z"/>
			<path style="fill:#FFFFFF;" d="M267.072,482.915v1.469c0,0.355-0.09,0.623-0.253,0.8c-0.168,0.18-0.379,0.268-0.636,0.268
				c-0.259,0-0.466-0.089-0.628-0.272c-0.16-0.179-0.244-0.444-0.244-0.796v-4.895c0-0.79,0.284-1.186,0.854-1.186
				c0.294,0,0.503,0.092,0.633,0.276c0.128,0.185,0.199,0.457,0.215,0.819c0.208-0.362,0.423-0.634,0.643-0.819
				c0.225-0.185,0.517-0.276,0.888-0.276c0.372,0,0.727,0.092,1.074,0.276c0.349,0.185,0.522,0.432,0.522,0.735
				c0,0.214-0.075,0.394-0.221,0.53c-0.149,0.142-0.308,0.211-0.478,0.211c-0.067,0-0.225-0.043-0.47-0.122
				c-0.247-0.077-0.467-0.117-0.652-0.117c-0.258,0-0.47,0.069-0.632,0.202c-0.164,0.139-0.291,0.337-0.382,0.601
				c-0.088,0.268-0.148,0.587-0.185,0.952C267.088,481.94,267.072,482.388,267.072,482.915L267.072,482.915z"/>
			<path style="fill:#FFFFFF;" d="M275.889,483.036c-0.16,0-0.29,0.04-0.38,0.12c-0.22,0.2-0.399,0.37-0.54,0.479
				c-0.14,0.131-0.279,0.24-0.449,0.341c-0.16,0.109-0.33,0.189-0.5,0.229c-0.181,0.061-0.37,0.08-0.58,0.08
				c-0.311,0-0.601-0.08-0.86-0.229c-0.26-0.16-0.47-0.391-0.63-0.69c-0.15-0.3-0.23-0.66-0.24-1.06h3.44
				c0.46,0,0.819-0.061,1.069-0.19c0.25-0.14,0.38-0.42,0.38-0.86c0-0.479-0.12-0.939-0.37-1.409c-0.239-0.461-0.609-0.83-1.1-1.12
				c-0.49-0.29-1.08-0.431-1.77-0.431c-0.53,0-1.011,0.08-1.441,0.25c-0.43,0.17-0.8,0.41-1.09,0.73c-0.3,0.32-0.53,0.7-0.68,1.14
				c-0.16,0.45-0.23,0.931-0.23,1.45c0,1.1,0.31,1.98,0.941,2.62c0.619,0.64,1.5,0.96,2.63,0.96c0.489,0,0.93-0.061,1.31-0.19
				c0.38-0.13,0.7-0.29,0.95-0.479c0.25-0.2,0.44-0.4,0.57-0.62c0.12-0.21,0.18-0.39,0.18-0.55c0-0.181-0.06-0.32-0.17-0.42
				C276.219,483.086,276.069,483.036,275.889,483.036z M272.228,479.966c0.28-0.3,0.641-0.449,1.07-0.449
				c0.471,0,0.83,0.149,1.12,0.449c0.28,0.29,0.441,0.74,0.48,1.341h-3.19C271.77,480.716,271.939,480.276,272.228,479.966z"/>
			<path style="fill:#FFFFFF;" d="M283.199,483.036c-0.16,0-0.29,0.04-0.38,0.12c-0.221,0.2-0.4,0.37-0.54,0.479
				c-0.141,0.131-0.28,0.24-0.45,0.341c-0.16,0.109-0.33,0.189-0.51,0.229c-0.17,0.061-0.36,0.08-0.57,0.08
				c-0.31,0-0.6-0.08-0.86-0.229c-0.26-0.16-0.47-0.391-0.619-0.69c-0.16-0.3-0.24-0.66-0.25-1.06h3.44c0.46,0,0.82-0.061,1.07-0.19
				c0.25-0.14,0.38-0.42,0.38-0.86c0-0.479-0.12-0.939-0.37-1.409c-0.24-0.461-0.61-0.83-1.1-1.12c-0.5-0.29-1.08-0.431-1.771-0.431
				c-0.53,0-1.01,0.08-1.44,0.25c-0.439,0.17-0.8,0.41-1.09,0.73c-0.3,0.32-0.529,0.7-0.68,1.14c-0.16,0.45-0.24,0.931-0.24,1.45
				c0,1.1,0.32,1.98,0.95,2.62c0.62,0.64,1.5,0.96,2.63,0.96c0.49,0,0.93-0.061,1.311-0.19c0.38-0.13,0.699-0.29,0.949-0.479
				c0.25-0.2,0.44-0.4,0.56-0.62c0.13-0.21,0.18-0.39,0.18-0.55c0-0.181-0.05-0.32-0.16-0.42
				C283.529,483.086,283.379,483.036,283.199,483.036z M279.529,479.966c0.29-0.3,0.649-0.449,1.08-0.449
				c0.46,0,0.83,0.149,1.119,0.449c0.28,0.29,0.44,0.74,0.481,1.341h-3.19C279.079,480.716,279.249,480.276,279.529,479.966z"/>
			<path style="fill:#FFFFFF;" d="M291.509,481.656c-0.02-0.65-0.149-1.21-0.38-1.7c-0.27-0.53-0.63-0.939-1.08-1.22
				c-0.46-0.28-0.96-0.42-1.5-0.42c-0.45,0-0.85,0.1-1.2,0.29c-0.359,0.189-0.71,0.49-1.04,0.899v-0.21
				c0-0.33-0.069-0.569-0.229-0.739c-0.16-0.171-0.36-0.25-0.61-0.25s-0.449,0.079-0.6,0.239c-0.15,0.17-0.22,0.42-0.22,0.761v7.579
				c0,0.391,0.06,0.671,0.159,0.881c0.11,0.189,0.33,0.29,0.66,0.29c0.561,0,0.84-0.391,0.84-1.16v-2.63
				c0.181,0.22,0.36,0.409,0.551,0.569c0.14,0.12,0.279,0.221,0.43,0.311c0.34,0.2,0.76,0.3,1.26,0.3c0.42,0,0.811-0.08,1.17-0.24
				c0.37-0.17,0.681-0.41,0.95-0.71c0.26-0.31,0.47-0.689,0.63-1.14c0.15-0.45,0.221-0.95,0.221-1.49
				C291.52,481.796,291.52,481.727,291.509,481.656z M289.529,483.076c-0.15,0.34-0.34,0.59-0.601,0.76
				c-0.239,0.17-0.52,0.261-0.81,0.261c-0.06,0-0.12,0-0.17-0.021c-0.42-0.03-0.771-0.229-1.06-0.57
				c-0.33-0.38-0.489-0.93-0.489-1.63c0-0.74,0.159-1.3,0.5-1.69c0.329-0.38,0.739-0.57,1.22-0.57c0.31,0,0.59,0.09,0.84,0.27
				c0.25,0.181,0.44,0.431,0.58,0.771c0.15,0.33,0.22,0.729,0.22,1.19c0,0.43-0.06,0.8-0.189,1.109
				C289.559,482.996,289.549,483.036,289.529,483.076z"/>
			<path style="fill:#FFFFFF;" d="M293.909,478.566c-0.17-0.181-0.38-0.26-0.64-0.26c-0.25,0-0.461,0.079-0.62,0.26
				c-0.16,0.18-0.25,0.439-0.25,0.79v5.029c0,0.341,0.09,0.601,0.25,0.79c0.159,0.181,0.37,0.27,0.62,0.27
				c0.26,0,0.47-0.08,0.64-0.27c0.17-0.18,0.25-0.44,0.25-0.79v-5.079C294.159,478.986,294.079,478.746,293.909,478.566z
				 M293.899,475.986c-0.181-0.15-0.38-0.22-0.61-0.22c-0.23,0-0.44,0.08-0.62,0.239c-0.18,0.16-0.27,0.37-0.27,0.62
				c0,0.271,0.09,0.48,0.27,0.63c0.17,0.15,0.38,0.23,0.62,0.23c0.24,0,0.439-0.08,0.62-0.23c0.17-0.149,0.25-0.359,0.25-0.63
				C294.159,476.347,294.069,476.126,293.899,475.986z"/>
			<path style="fill:#FFFFFF;" d="M299.827,484.648l-1.548-2.552l-0.954,0.9v1.399c0,0.339-0.09,0.598-0.269,0.779
				c-0.175,0.185-0.384,0.275-0.614,0.275c-0.27,0-0.484-0.089-0.638-0.272c-0.153-0.179-0.232-0.444-0.232-0.796v-7.498
				c0-0.388,0.077-0.685,0.224-0.89c0.151-0.207,0.369-0.307,0.646-0.307c0.271,0,0.483,0.093,0.644,0.279
				c0.158,0.183,0.239,0.456,0.239,0.814v4.265l1.977-2.075c0.245-0.255,0.429-0.435,0.561-0.527
				c0.128-0.095,0.283-0.142,0.467-0.142c0.221,0,0.402,0.07,0.553,0.209c0.143,0.14,0.217,0.316,0.217,0.524
				c0,0.257-0.239,0.602-0.715,1.031l-0.933,0.855l1.802,2.835c0.131,0.213,0.229,0.368,0.287,0.479
				c0.058,0.107,0.088,0.217,0.088,0.313c0,0.28-0.077,0.498-0.23,0.661c-0.152,0.161-0.354,0.24-0.601,0.24
				c-0.214,0-0.382-0.055-0.497-0.174C300.185,485.16,300.024,484.95,299.827,484.648L299.827,484.648z"/>
			<path style="fill:#FFFFFF;" d="M303.646,485.451c-0.265,0-0.492-0.086-0.686-0.258c-0.192-0.169-0.291-0.411-0.291-0.722
				c0-0.262,0.094-0.487,0.278-0.675c0.186-0.19,0.412-0.283,0.684-0.283c0.268,0,0.498,0.094,0.692,0.279
				c0.19,0.186,0.286,0.414,0.286,0.679c0,0.307-0.097,0.547-0.286,0.718C304.129,485.365,303.903,485.451,303.646,485.451
				L303.646,485.451z"/>
			<path style="fill:#FFFFFF;" d="M312.389,483.275c0,0.218-0.066,0.453-0.197,0.701c-0.13,0.251-0.331,0.486-0.601,0.712
				c-0.268,0.225-0.604,0.408-1.013,0.544c-0.407,0.137-0.868,0.208-1.376,0.208c-1.089,0-1.938-0.318-2.547-0.949
				c-0.607-0.635-0.912-1.484-0.912-2.549c0-0.723,0.138-1.359,0.419-1.914c0.276-0.552,0.681-0.98,1.208-1.283
				c0.527-0.304,1.162-0.454,1.894-0.454c0.456,0,0.873,0.066,1.255,0.2c0.38,0.132,0.7,0.306,0.966,0.515
				c0.262,0.213,0.465,0.436,0.603,0.672c0.14,0.238,0.208,0.462,0.208,0.669c0,0.209-0.077,0.388-0.232,0.534
				c-0.159,0.146-0.35,0.22-0.568,0.22c-0.148,0-0.27-0.039-0.367-0.113c-0.097-0.076-0.206-0.196-0.324-0.367
				c-0.215-0.324-0.438-0.57-0.675-0.731c-0.232-0.164-0.528-0.245-0.89-0.245c-0.517,0-0.939,0.202-1.257,0.608
				c-0.316,0.403-0.477,0.962-0.477,1.663c0,0.331,0.043,0.637,0.124,0.913c0.079,0.276,0.197,0.513,0.353,0.708
				c0.156,0.194,0.342,0.342,0.561,0.443c0.22,0.104,0.461,0.152,0.721,0.152c0.353,0,0.655-0.081,0.905-0.244
				c0.255-0.163,0.477-0.411,0.669-0.747c0.107-0.197,0.222-0.351,0.345-0.463c0.124-0.111,0.277-0.169,0.458-0.169
				c0.215,0,0.393,0.083,0.533,0.245C312.316,482.917,312.389,483.093,312.389,483.275L312.389,483.275z"/>
			<path style="fill:#FFFFFF;" d="M319.728,480.426c-0.159-0.43-0.39-0.81-0.699-1.13c-0.311-0.319-0.681-0.56-1.11-0.729
				c-0.44-0.181-0.92-0.26-1.45-0.26c-0.529,0-1.01,0.079-1.439,0.25c-0.431,0.17-0.801,0.409-1.11,0.729
				c-0.3,0.311-0.54,0.69-0.7,1.13c-0.16,0.44-0.24,0.931-0.24,1.46c0,0.53,0.08,1.01,0.231,1.45c0.17,0.43,0.4,0.81,0.72,1.13
				c0.3,0.32,0.681,0.57,1.101,0.74c0.42,0.17,0.899,0.26,1.439,0.26c0.53,0,1.01-0.09,1.45-0.26c0.42-0.17,0.79-0.41,1.101-0.73
				c0.31-0.319,0.55-0.699,0.709-1.14c0.16-0.44,0.24-0.93,0.24-1.45C319.969,481.347,319.889,480.866,319.728,480.426z
				 M317.739,483.536c-0.32,0.41-0.74,0.61-1.271,0.61c-0.359,0-0.66-0.09-0.92-0.271c-0.26-0.19-0.46-0.45-0.6-0.8
				c-0.141-0.34-0.21-0.74-0.21-1.2c0-0.46,0.069-0.87,0.21-1.22c0.14-0.34,0.34-0.61,0.609-0.79c0.261-0.17,0.56-0.26,0.91-0.26
				c0.53,0,0.95,0.2,1.271,0.6c0.31,0.4,0.47,0.96,0.47,1.67C318.209,482.586,318.049,483.136,317.739,483.536z"/>
			<path style="fill:#FFFFFF;" d="M326.677,482.008v2.336c0,0.371-0.082,0.645-0.251,0.832c-0.169,0.185-0.387,0.276-0.662,0.276
				c-0.267,0-0.484-0.092-0.645-0.276c-0.168-0.188-0.252-0.461-0.252-0.832v-2.8c0-0.442-0.015-0.787-0.043-1.033
				c-0.031-0.239-0.114-0.443-0.246-0.598c-0.133-0.16-0.345-0.238-0.631-0.238c-0.576,0-0.953,0.196-1.136,0.597
				c-0.182,0.391-0.275,0.958-0.275,1.699v2.373c0,0.364-0.083,0.642-0.245,0.829c-0.169,0.185-0.385,0.279-0.654,0.279
				c-0.268,0-0.485-0.094-0.655-0.279c-0.17-0.188-0.255-0.465-0.255-0.829v-5.028c0-0.331,0.076-0.583,0.228-0.753
				c0.155-0.174,0.356-0.259,0.602-0.259c0.242,0,0.441,0.084,0.605,0.241c0.16,0.161,0.24,0.384,0.24,0.667v0.166
				c0.308-0.362,0.634-0.631,0.978-0.8c0.351-0.177,0.733-0.262,1.161-0.262c0.441,0,0.82,0.089,1.137,0.264
				c0.318,0.177,0.579,0.444,0.787,0.798c0.298-0.358,0.616-0.625,0.955-0.8c0.339-0.175,0.714-0.262,1.127-0.262
				c0.478,0,0.895,0.097,1.242,0.284c0.346,0.189,0.605,0.46,0.778,0.81c0.149,0.32,0.224,0.82,0.224,1.503v3.431
				c0,0.371-0.083,0.645-0.249,0.832c-0.167,0.185-0.39,0.276-0.664,0.276c-0.268,0-0.483-0.094-0.653-0.279
				c-0.17-0.188-0.255-0.465-0.255-0.829v-2.956c0-0.378-0.017-0.68-0.047-0.906c-0.032-0.229-0.12-0.421-0.26-0.574
				c-0.144-0.154-0.359-0.232-0.646-0.232c-0.232,0-0.452,0.072-0.66,0.208c-0.208,0.135-0.371,0.323-0.488,0.551
				C326.743,480.73,326.677,481.256,326.677,482.008L326.677,482.008z"/>
		</g>
		<g>
			<path style="fill:#FFFFFF;" d="M244.872,481.453c-0.002-0.003-0.002-0.006-0.002-0.012
				C244.871,481.447,244.871,481.45,244.872,481.453z"/>
			<path style="fill:#FFFFFF;" d="M244.961,482.016c0.001,0,0.001,0,0.002,0c-0.034-0.16-0.06-0.319-0.081-0.476
				C244.903,481.698,244.929,481.857,244.961,482.016z"/>
			<path style="fill:#FFFFFF;" d="M245.542,483.647c-0.004-0.007-0.007-0.015-0.012-0.023
				C245.535,483.632,245.539,483.64,245.542,483.647z"/>
			<path style="fill:#FFFFFF;" d="M245.487,483.538c-0.015-0.03-0.03-0.061-0.044-0.091
				C245.457,483.478,245.472,483.508,245.487,483.538z"/>
			<path style="fill:#FFFFFF;" d="M245.124,482.644c0.086,0.271,0.19,0.534,0.31,0.785c-0.122-0.256-0.224-0.52-0.308-0.785
				C245.126,482.644,245.125,482.644,245.124,482.644z"/>
			<path style="fill:#FFFFFF;" d="M251.675,474.72c0.34,0,0.59,0.026,0.878,0.075l0.081-0.517c0,0-0.794-0.244-1.837-0.159
				l-0.082-0.281c0.324-0.068,0.567-0.356,0.567-0.701c0-0.395-0.321-0.714-0.716-0.714c-0.395,0-0.716,0.319-0.716,0.714
				c0,0.345,0.243,0.633,0.567,0.701l0.09,0.314c-1.107,0.152-1.989,0.585-1.989,0.585l0.156,0.478
				c0.67-0.224,1.252-0.358,1.778-0.416C250.97,474.743,251.358,474.72,251.675,474.72z"/>
			<path style="fill:#FFFFFF;" d="M245.529,477.334l0.004-0.005c0.026-0.034,0.051-0.065,0.077-0.097l-0.212-0.153l-0.33-0.241
				c-0.019,0.025-0.539,0.504-0.95,1.388c-0.018-0.027-0.038-0.055-0.061-0.081c-0.123-0.134-0.295-0.202-0.514-0.198
				c-0.003,0-0.006,0-0.01,0c-0.135,0-0.228-0.046-0.289-0.101c0.061-0.076,0.097-0.173,0.097-0.28c0-0.249-0.203-0.453-0.454-0.453
				c-0.249,0-0.453,0.204-0.453,0.453c0,0.251,0.204,0.454,0.453,0.454c0.04,0,0.077-0.007,0.113-0.014
				c0.111,0.123,0.288,0.231,0.547,0.226c0.133-0.001,0.231,0.033,0.296,0.105c0.075,0.082,0.1,0.2,0.108,0.29
				c-0.001,0.001-0.001,0.003-0.002,0.003c-0.295,0.807-0.211,1.81-0.211,1.81l0.716,0.028c0.015-0.365,0.067-1.004,0.252-1.512
				C245.064,477.975,245.511,477.36,245.529,477.334z"/>
			<path style="fill:#FFFFFF;" d="M257.909,475.318c-0.249,0-0.453,0.202-0.453,0.453c0,0.039,0.006,0.076,0.016,0.112
				c-0.124,0.112-0.232,0.29-0.228,0.549c0.002,0.134-0.032,0.23-0.104,0.296c-0.058,0.051-0.13,0.078-0.2,0.096
				c-0.533-0.747-1.191-1.203-1.191-1.203l-0.514,0.551c0.389,0.353,0.785,0.797,1.171,1.349c0.267,0.382,0.542,0.875,0.77,1.366
				l0.693-0.33c0,0-0.316-0.783-0.763-1.485c0.077-0.027,0.155-0.069,0.225-0.13c0.136-0.123,0.202-0.296,0.198-0.514
				c-0.001-0.142,0.045-0.236,0.101-0.3c0.077,0.06,0.174,0.098,0.279,0.098c0.252,0,0.454-0.204,0.454-0.454
				C258.363,475.521,258.161,475.318,257.909,475.318z"/>
			<path style="fill:#FFFFFF;" d="M256.108,481.555c-0.955,0.466-2.527,1.08-4.596,1.369c-0.812,0.112-1.599,0.154-2.324,0.154
				c-0.942,0-1.775-0.07-2.414-0.151c-0.729-0.092-1.3-0.204-1.648-0.283c0.084,0.266,0.186,0.529,0.308,0.785
				c0.002,0.007,0.005,0.014,0.008,0.019c0.015,0.029,0.029,0.061,0.044,0.091c0.015,0.029,0.029,0.059,0.044,0.086
				c0.004,0.008,0.008,0.016,0.012,0.023c0.205,0.387,0.452,0.742,0.732,1.05c0.976,1.067,1.97,1.236,1.98,1.237l0.016,0.002
				l0.015,0.005c0.009,0.004,0.89,0.288,2.23,0.288c1.319,0,2.613-0.266,3.845-0.791c0.913-0.467,1.777-1.177,2.205-1.81
				c0.331-0.489,0.57-1.012,0.712-1.555c0.075-0.288,0.135-0.75,0.1-1.236C257.108,481.018,256.684,481.274,256.108,481.555z"/>
			<path style="fill:#FFFFFF;" d="M256.089,477.736c-1.35-1.94-2.819-2.44-3.569-2.56c-0.29-0.05-0.521-0.069-0.841-0.069
				c-0.31,0-0.68,0.02-1.189,0.069c-0.5,0.051-1.06,0.19-1.71,0.41c-0.92,0.3-1.74,0.78-2.39,1.38l-0.02,0.021
				c-0.1,0.09-0.3,0.28-0.53,0.57c-0.03,0.04-0.45,0.63-0.77,1.529c-0.25,0.681-0.24,1.66-0.24,1.67c0,0.23,0.02,0.46,0.04,0.69
				c0,0,0,0,0,0.01c0.01,0.03,0.01,0.05,0.01,0.08c0.02,0.16,0.05,0.32,0.08,0.48c0.48,0.119,3.31,0.779,6.47,0.34
				c1.99-0.28,3.49-0.86,4.41-1.311c0.76-0.359,1.25-0.699,1.44-0.84C257.089,479.517,256.569,478.416,256.089,477.736z
				 M248.569,480.876c-1.06,0-1.91-0.85-1.91-1.91c0-1.05,0.85-1.899,1.91-1.899c1.05,0,1.91,0.85,1.91,1.899
				C250.479,480.026,249.619,480.876,248.569,480.876z M254.149,479.477c-0.65,0-1.181-0.53-1.181-1.19c0-0.65,0.53-1.18,1.181-1.18
				c0.649,0,1.18,0.529,1.18,1.18C255.329,478.946,254.799,479.477,254.149,479.477z"/>
		</g>
	</g>
</g>
</svg>
